# xmcd
#
# Track frame offsets:
#	150
#	23502
#	37877
#	55987
#	71182
#	83902
#	103792
#	123945
#	139770
#	162092
#	176870
#	198965
#
# Disc length: 2830 seconds
#
# Revision: 0
# Processed by: cddbd v1.5.2PL0 Copyright (c) Steve Scherf et al.
# Submitted via: EasyCDDAExtractor 2010.6.0.0
#
DISCID=9f0b0c0c
DTITLE=Weber/Niehusmann - Another Blue
DYEAR=1900
DGENRE=
TTITLE0=Michael from Mountains
TTITLE1=All I Want
TTITLE2=Marcie
TTITLE3=River
TTITLE4=Blue
TTITLE5=A Case Of You
TTITLE6=For Free
TTITLE7=Little Green
TTITLE8=Cactus Tree
TTITLE9=Conversation
TTITLE10=The Circle Game
TTITLE11=Big Yellow Taxi
EXTD=
EXTT0=
EXTT1=
EXTT2=
EXTT3=
EXTT4=
EXTT5=
EXTT6=
EXTT7=
EXTT8=
EXTT9=
EXTT10=
EXTT11=
PLAYORDER=
